<?xml version="1.0" encoding="utf-8"?>
<!-- Generator: Adobe Illustrator 18.0.0, SVG Export Plug-In . SVG Version: 6.00 Build 0)  -->
<!DOCTYPE svg PUBLIC "-//W3C//DTD SVG 1.1//EN" "http://www.w3.org/Graphics/SVG/1.1/DTD/svg11.dtd">
<svg version="1.1" id="Layer_1" xmlns="http://www.w3.org/2000/svg" xmlns:xlink="http://www.w3.org/1999/xlink" x="0px" y="0px"
	 viewBox="0 0 612 187" enable-background="new 0 0 612 187" xml:space="preserve">
<g>
	<g>
		<g>
			<g>
				<g>
					<path fill="#7A2531" d="M129.4,71.9c-0.5-0.1-1.1-0.2-1.6-0.3c8.8,4.9,13.5,15.4,10.7,25.8l-5.9,22l-21.5-5.8
						C101,110.7,94.4,101.3,94.7,91c-0.2,0.5-0.4,1.1-0.5,1.6c-4.2,15.6,4.7,31.5,20,35.6l27.6,7.5l7.6-28.2
						C153.6,92,144.7,76,129.4,71.9z"/>
					<path fill="#7A2531" d="M64.6,87L48.7,71.3l15.7-15.8c4-4,9.2-6.2,14.5-6.6c3.1,0,4.5,2.9,5.6,6.8l1.7,6.1
						c0.1,0.4,0.2,0.8,0.4,1.2c0,0.1,0,0.1,0,0.1c0,0,0,0,0,0c2.5,6.6,9.5,10,16.2,7.5c0.2-0.1,0.5-0.2,0.7-0.3
						c-4.7,0.5-9.2-2.5-10.6-7.4l-2.8-10.1l9.7-3.9c4.6-1.7,9.4,0.2,11.8,4.3c-0.1-0.3-0.1-0.5-0.2-0.8c-1.9-6.2-7.5-9.8-13.4-9.1
						c0,0,0,0-0.1,0c-1.3,0-1.2-1-1.1-1.5c2.5-6.5,7.9-11.7,15.1-13.6l21.5-5.7l4.6,17.3c0.4,1.7-1.1,2.5-3.9,2.3l-2.2-0.4
						c0,0,0,0,0,0c-0.1,0-0.2,0-0.3-0.1l-2.6-0.5c-7.1-1.3-14,3.6-15.5,11.1c-0.1,0.3-0.1,0.5-0.1,0.8c2-4.5,6.6-7.2,11.4-6.3
						l10.1,1.9l-1.9,10.8c-0.9,5.2-5,9.2-9.8,9.4c0.3,0.1,0.5,0.1,0.8,0.2c1.4,0.3,2.8,0.3,4.2,0.1c0,0,0,0,0,0c0.1,0,0.1,0,0.2,0
						c0.4-0.1,0.8-0.2,1.3-0.3c0.1,0,0.1,0,0.2,0c15.3-4.1,24.4-19.7,20.3-35l-7.4-27.6l-27.6,7.4c-13.4,3.6-22,16-21.2,29.4l0,0
						c0,0,0.2,1.3-1.3,1.9l0,0l-3.9,1.6l0,0c0,0-2.3,1-4.5-0.3C84.2,46.1,84.1,46,84,46c-10.9-5.8-24.7-4.1-33.9,5.1L30,71.4
						l20.3,20.1c11.2,11.1,29.3,11,40.5-0.2c0.4-0.4,0.7-0.8,1.1-1.2C83.4,95.4,72,94.4,64.6,87z"/>
					<path fill="#7A2531" d="M104,72.8c-5.1,5.4-4.8,13.8,0.8,18.7l10.4,9l9.3-10.4c5-5.6,4.4-14-1.3-18.7c-0.2-0.2-0.4-0.3-0.6-0.5
						c2.8,3.7,2.6,8.9-0.7,12.6l-7.2,8l-8-6.9c-3.7-3.2-4.4-8.4-2.1-12.4C104.4,72.4,104.2,72.6,104,72.8z"/>
				</g>
			</g>
			<g>
				<path fill="#7A2531" d="M170.8,76.1h-4.2V42.7h4.8c10.3,0,13.5,3.5,13.5,9.7c0,7-5.4,9.8-11.7,9.8h-2.4V76.1z M170.8,58.3h1.3
					c4.3,0,8.9-0.8,8.9-6.1c0-5.2-5-5.8-9.1-5.8h-1.1V58.3z"/>
				<path fill="#7A2531" d="M192,55.3v11.5c0,3.3,0.8,6.2,4.8,6.2c3.9,0,4.8-2.9,4.8-6.2V55.3h4v11.9c0,5.7-2.7,9.5-8.8,9.5
					c-6.1,0-8.8-3.9-8.8-9.5V55.3H192z"/>
				<path fill="#7A2531" d="M210.9,37.6h4v21.2h0.1c1.6-2.5,4.1-4.1,7.2-4.1c6,0,9.8,5.2,9.8,10.9c0,5.9-3.6,11.2-9.9,11.2
					c-2.9,0-5.5-1.6-7-3.9h-0.1v3.2h-4V37.6z M228,65.7c0-4-2.4-7.4-6.7-7.4c-4.1,0-6.6,3.6-6.6,7.4c0,3.9,2.4,7.5,6.6,7.5
					C225.6,73.2,228,69.8,228,65.7z"/>
				<path fill="#7A2531" d="M240.5,76.1h-4V37.6h4V76.1z"/>
				<path fill="#7A2531" d="M251.5,45.9c0,1.5-1.2,2.7-2.8,2.7c-1.5,0-2.7-1.2-2.7-2.7c0-1.6,1.2-2.8,2.7-2.8
					C250.2,43.1,251.5,44.3,251.5,45.9z M250.7,76.1h-4V55.3h4V76.1z"/>
				<path fill="#7A2531" d="M272.2,61.2c-1.6-1.8-3.5-2.8-5.9-2.8c-3.9,0-6.9,3.5-6.9,7.3c0,4.3,3,7.4,7.2,7.4
					c2.3,0,4.2-1.1,5.7-2.8v5.1c-1.8,1-3.6,1.4-5.7,1.4c-6.1,0-11.1-4.7-11.1-10.9c0-6.4,5-11.2,11.3-11.2c1.9,0,3.9,0.5,5.5,1.4
					V61.2z"/>
				<path fill="#7A2531" d="M306.8,49c-1.2-2.1-2.8-3.2-5.4-3.2c-2.7,0-5.6,1.8-5.6,4.7c0,2.6,2.6,4,4.7,4.8l2.4,0.9
					c4.7,1.9,8.3,4.5,8.3,10.1c0,6.1-4.7,10.4-10.7,10.4c-5.4,0-9.6-4-10.3-9.4l4.2-0.9c0,3.7,2.9,6.3,6.5,6.3c3.6,0,6.2-3,6.2-6.5
					c0-3.6-2.9-5.1-5.8-6.3l-2.3-1c-3.8-1.6-7.3-3.8-7.3-8.5c0-5.4,4.8-8.6,9.8-8.6c3.7,0,6.8,1.8,8.6,5.1L306.8,49z"/>
				<path fill="#7A2531" d="M318.5,66.4c0,3.5,2.4,6.9,6.3,6.9c3.1,0,4.7-1.5,6.2-4l3.4,1.9c-2,3.6-5.6,5.7-9.6,5.7
					c-6.3,0-10.2-4.8-10.2-10.9c0-6.4,3.4-11.2,10.1-11.2c6.6,0,9.7,4.9,9.7,11v0.6H318.5z M330.3,63.4c-0.5-3.1-2.5-5.2-5.7-5.2
					c-3.1,0-5.4,2.2-5.9,5.2H330.3z"/>
				<path fill="#7A2531" d="M342.6,58.7h0.1c1-2.4,3-4,5.7-4c1.2,0,2.3,0.4,3.3,1l-1.8,3.6c-0.7-0.6-1.5-0.8-2.4-0.8
					c-4.3,0-4.8,4-4.8,7.4v10.2h-4V55.3h4V58.7z"/>
				<path fill="#7A2531" d="M363.4,68.3l6-12.9h4.5l-10.5,21.5L353,55.3h4.5L363.4,68.3z"/>
				<path fill="#7A2531" d="M381.9,45.9c0,1.5-1.2,2.7-2.8,2.7c-1.5,0-2.7-1.2-2.7-2.7c0-1.6,1.2-2.8,2.7-2.8
					C380.7,43.1,381.9,44.3,381.9,45.9z M381.1,76.1h-4V55.3h4V76.1z"/>
				<path fill="#7A2531" d="M402.6,61.2c-1.6-1.8-3.5-2.8-5.9-2.8c-3.9,0-6.9,3.5-6.9,7.3c0,4.3,3,7.4,7.2,7.4
					c2.3,0,4.2-1.1,5.7-2.8v5.1c-1.8,1-3.6,1.4-5.7,1.4c-6.1,0-11.1-4.7-11.1-10.9c0-6.4,5-11.2,11.3-11.2c1.9,0,3.9,0.5,5.5,1.4
					V61.2z"/>
				<path fill="#7A2531" d="M409.8,66.4c0,3.5,2.4,6.9,6.2,6.9c3.1,0,4.7-1.5,6.2-4l3.4,1.9c-2,3.6-5.6,5.7-9.6,5.7
					c-6.3,0-10.2-4.8-10.2-10.9c0-6.4,3.4-11.2,10.1-11.2c6.6,0,9.7,4.9,9.7,11v0.6H409.8z M421.6,63.4c-0.5-3.1-2.5-5.2-5.7-5.2
					c-3.1,0-5.4,2.2-5.9,5.2H421.6z"/>
				<path fill="#7A2531" d="M438,60.1c-0.5-1-1.5-1.8-2.7-1.8c-1.1,0-2.2,0.9-2.2,2c0,1.8,2.4,2.6,4.8,3.7c2.4,1.1,4.8,2.6,4.8,5.9
					c0,3.9-3.3,6.9-7.1,6.9c-3,0-6.1-1.7-7.2-4.7l3.4-1.5c0.8,1.5,1.9,2.7,3.8,2.7c1.7,0,3.1-1.2,3.1-2.9c0-1.1-0.5-1.6-1.5-2.3
					l-3.9-2.1c-2.3-1.2-4-2.4-4-5.2c0-3.4,2.7-6,6.1-6c2.5,0,4.6,1.4,5.7,3.6L438,60.1z"/>
				<path fill="#7A2531" d="M481.9,56.1V42.7h4.2v33.4h-4.2V60h-15.9v16h-4.2V42.7h4.2v13.5H481.9z"/>
				<path fill="#7A2531" d="M494.8,66.4c0,3.5,2.4,6.9,6.2,6.9c3.1,0,4.7-1.5,6.2-4l3.4,1.9c-2,3.6-5.6,5.7-9.6,5.7
					c-6.3,0-10.2-4.8-10.2-10.9c0-6.4,3.4-11.2,10.1-11.2c6.6,0,9.7,4.9,9.7,11v0.6H494.8z M506.6,63.4c-0.5-3.1-2.5-5.2-5.7-5.2
					c-3.1,0-5.4,2.2-5.9,5.2H506.6z"/>
				<path fill="#7A2531" d="M534.4,76.1h-4v-3.2h-0.1c-1.6,2.4-4.1,3.9-7,3.9c-6.3,0-9.9-5.3-9.9-11.2c0-5.7,3.8-10.9,9.8-10.9
					c3.1,0,5.5,1.6,7.2,4.1h0.1v-3.5h4V76.1z M530.7,65.7c0-4-2.4-7.4-6.7-7.4c-4.1,0-6.6,3.6-6.6,7.4c0,3.9,2.4,7.5,6.6,7.5
					C528.3,73.2,530.7,69.8,530.7,65.7z"/>
				<path fill="#7A2531" d="M544.1,76.1h-4V37.6h4V76.1z"/>
				<path fill="#7A2531" d="M554.5,76.1h-4v-17h-2.2v-3.7h2.2v-7.9h4v7.9h3.9v3.7h-3.9V76.1z"/>
				<path fill="#7A2531" d="M565.2,37.6v20.5h0.1c1.2-2.2,3.7-3.4,6.2-3.4c5.8,0,7.4,3.9,7.4,9v12.4h-4V64.2c0-3.5-0.5-5.9-4.6-5.9
					c-5.1,0-5.1,4.5-5.1,8.3v9.5h-4V37.6H565.2z"/>
				<path fill="#7A2531" d="M186,120.8c-2.5,3-6.1,5.2-10,5.2c-5.6,0-10.2-4.1-10.2-9.8c0-4.3,2.7-6.6,5.8-8.9l2.1-1.5
					c-1.9-2-3.7-4.5-3.7-7.3c0-4.6,3.3-7.3,7.7-7.3c4.1,0,7.7,2.6,7.7,7c0,3.8-3.3,6.3-6.1,8.3l7,8.4l3.9-4.5l2.7,2.7l-4.1,4.8
					l6,7.4h-5.1L186,120.8z M175.7,109.1c-2.3,1.6-6.1,3.9-6.1,7.1c0,3.2,3,6.2,6.2,6.2c3.1,0,5.6-2.4,7.7-4.4l-7.4-9L175.7,109.1z
					 M177.6,103.2c1.7-1.3,4-2.7,4-5.1c0-2.4-1.7-3.6-3.9-3.6c-2,0-3.7,1.4-3.7,3.5c0,1.7,1,2.9,2,4.2l1.1,1.4L177.6,103.2z"/>
				<path fill="#7A2531" d="M227.1,98.2c-1.2-2.1-2.8-3.1-5.4-3.1c-2.7,0-5.6,1.8-5.6,4.7c0,2.6,2.6,4,4.7,4.8l2.4,0.9
					c4.7,1.9,8.3,4.5,8.3,10.1c0,6.1-4.7,10.4-10.7,10.4c-5.4,0-9.6-4-10.3-9.3l4.2-0.9c0,3.7,2.9,6.3,6.5,6.3c3.6,0,6.2-3,6.2-6.5
					c0-3.6-2.9-5.1-5.8-6.3l-2.3-1c-3.8-1.6-7.3-3.8-7.3-8.5c0-5.4,4.8-8.6,9.8-8.6c3.7,0,6.8,1.8,8.6,5L227.1,98.2z"/>
				<path fill="#7A2531" d="M255.9,125.3h-4v-3.2h-0.1c-1.6,2.3-4.1,3.9-7,3.9c-6.3,0-9.9-5.3-9.9-11.2c0-5.7,3.8-10.9,9.8-10.9
					c3.1,0,5.5,1.6,7.2,4.1h0.1v-3.5h4V125.3z M252.1,114.9c0-4-2.4-7.4-6.7-7.4c-4.1,0-6.6,3.6-6.6,7.4c0,3.9,2.3,7.5,6.6,7.5
					C249.7,122.5,252.1,119,252.1,114.9z"/>
				<path fill="#7A2531" d="M271.7,90.9c-0.8-0.4-1.8-0.8-2.7-0.8c-2.8,0-2.8,3.6-2.8,5.6v8.9h5.5v3.7h-5.5v17h-4v-17h-1.8v-3.7h1.8
					V94.5c0-4.5,1.5-8.2,6.7-8.2c1,0,1.9,0.2,2.8,0.5V90.9z"/>
				<path fill="#7A2531" d="M277,115.6c0,3.5,2.4,6.9,6.3,6.9c3.1,0,4.7-1.6,6.2-4l3.4,1.9c-2,3.6-5.6,5.7-9.6,5.7
					c-6.3,0-10.2-4.8-10.2-10.9c0-6.4,3.4-11.2,10.1-11.2c6.6,0,9.7,4.9,9.7,11v0.6H277z M288.8,112.6c-0.5-3.1-2.5-5.2-5.7-5.2
					c-3.1,0-5.4,2.2-5.9,5.2H288.8z"/>
				<path fill="#7A2531" d="M301.3,125.3h-4v-17h-2.2v-3.7h2.2v-7.9h4v7.9h3.9v3.7h-3.9V125.3z"/>
				<path fill="#7A2531" d="M306.5,104.6h4.7l7,13.2l6.5-13.2h4.5l-16.8,32.6h-4.5l8.2-15.4L306.5,104.6z"/>
				<path fill="#7A2531" d="M351.4,116.9l-3.8,8.4h-4.5l16-34.8l16,34.8h-4.5l-3.8-8.4H351.4z M359.1,99.6l-5.9,13.5h11.9
					L359.1,99.6z"/>
				<path fill="#7A2531" d="M386.3,109.3c-0.5-1-1.5-1.8-2.7-1.8c-1.1,0-2.2,0.9-2.2,2c0,1.8,2.4,2.6,4.8,3.7
					c2.4,1.1,4.8,2.6,4.8,5.9c0,3.9-3.3,6.9-7.1,6.9c-3,0-6.1-1.7-7.2-4.6l3.4-1.6c0.8,1.6,1.9,2.7,3.8,2.7c1.7,0,3.1-1.1,3.1-2.9
					c0-1.1-0.5-1.6-1.5-2.3l-3.9-2.1c-2.3-1.2-4-2.4-4-5.2c0-3.4,2.8-6,6.1-6c2.5,0,4.6,1.4,5.7,3.6L386.3,109.3z"/>
				<path fill="#7A2531" d="M403.6,109.3c-0.5-1-1.5-1.8-2.7-1.8c-1.1,0-2.2,0.9-2.2,2c0,1.8,2.4,2.6,4.8,3.7
					c2.4,1.1,4.8,2.6,4.8,5.9c0,3.9-3.3,6.9-7.1,6.9c-3,0-6.1-1.7-7.2-4.6l3.4-1.6c0.8,1.6,1.9,2.7,3.8,2.7c1.7,0,3.1-1.1,3.1-2.9
					c0-1.1-0.5-1.6-1.5-2.3l-3.9-2.1c-2.3-1.2-4-2.4-4-5.2c0-3.4,2.7-6,6.1-6c2.5,0,4.6,1.4,5.7,3.6L403.6,109.3z"/>
				<path fill="#7A2531" d="M433.2,115c0,6.2-4.9,11-11.1,11c-6.2,0-11.1-4.8-11.1-11c0-6.2,4.9-11,11.1-11
					C428.3,103.9,433.2,108.7,433.2,115z M415,115c0,3.9,3.2,7.2,7.1,7.2c4,0,7.1-3.3,7.1-7.2c0-3.9-3.1-7.2-7.1-7.2
					C418.2,107.8,415,111,415,115z"/>
				<path fill="#7A2531" d="M452.9,110.5c-1.6-1.8-3.5-2.8-5.9-2.8c-3.9,0-6.9,3.5-6.9,7.3c0,4.3,3,7.4,7.2,7.4
					c2.3,0,4.2-1.1,5.7-2.7v5.1c-1.8,1-3.6,1.4-5.7,1.4c-6.1,0-11.1-4.7-11.1-10.9c0-6.4,5-11.2,11.3-11.2c1.9,0,3.9,0.4,5.5,1.4
					V110.5z"/>
				<path fill="#7A2531" d="M462.8,95.1c0,1.5-1.2,2.7-2.7,2.7c-1.5,0-2.8-1.2-2.8-2.7c0-1.6,1.2-2.8,2.8-2.8
					C461.6,92.3,462.8,93.5,462.8,95.1z M462.1,125.3h-4v-20.7h4V125.3z"/>
				<path fill="#7A2531" d="M487.8,125.3h-4v-3.2h-0.1c-1.6,2.3-4.1,3.9-7,3.9c-6.3,0-9.9-5.3-9.9-11.2c0-5.7,3.8-10.9,9.8-10.9
					c3.1,0,5.5,1.6,7.2,4.1h0.1v-3.5h4V125.3z M484,114.9c0-4-2.4-7.4-6.7-7.4c-4.1,0-6.6,3.6-6.6,7.4c0,3.9,2.3,7.5,6.6,7.5
					C481.7,122.5,484,119,484,114.9z"/>
				<path fill="#7A2531" d="M498,125.3h-4v-17h-2.2v-3.7h2.2v-7.9h4v7.9h3.9v3.7H498V125.3z"/>
				<path fill="#7A2531" d="M509.9,95.1c0,1.5-1.2,2.7-2.8,2.7c-1.5,0-2.7-1.2-2.7-2.7c0-1.6,1.2-2.8,2.7-2.8
					C508.7,92.3,509.9,93.5,509.9,95.1z M509.2,125.3h-4v-20.7h4V125.3z"/>
				<path fill="#7A2531" d="M535.8,115c0,6.2-4.9,11-11.1,11c-6.2,0-11.1-4.8-11.1-11c0-6.2,4.9-11,11.1-11
					C530.9,103.9,535.8,108.7,535.8,115z M517.6,115c0,3.9,3.2,7.2,7.1,7.2c3.9,0,7.1-3.3,7.1-7.2c0-3.9-3.2-7.2-7.1-7.2
					C520.8,107.8,517.6,111,517.6,115z"/>
				<path fill="#7A2531" d="M544,107.4L544,107.4c1.3-2.2,3.8-3.4,6.3-3.4c5.8,0,7.4,3.9,7.4,9v12.4h-4v-11.9c0-3.5-0.5-5.9-4.6-5.9
					c-5.1,0-5.1,4.5-5.1,8.3v9.5h-4v-20.7h4V107.4z"/>
			</g>
		</g>
		<g>
			<path fill="#7A2531" d="M571.2,105.7h-2.7v7h-1.2v-7h-2.7v-1.2h6.6V105.7z M581.3,112.7h-1.2v-7h0l-2.8,7h-0.8l-2.7-7h0v7h-1.2
				v-8.1h1.9l2.3,5.8l2.4-5.8h1.9V112.7z"/>
		</g>
	</g>
</g>
<g display="none">
	<path display="inline" fill="#2A2723" d="M38.1,170.3l-7.6-11H33l6.2,9.1l6.2-9.1h2.4l-7.6,11v7.2h-2.1V170.3z"/>
	<path display="inline" fill="#2A2723" d="M46,170.8L46,170.8c0-3.9,3-7.1,7-7.1c4,0,7,3.2,7,7v0.1c0,3.8-3,7-7.1,7
		C48.9,177.8,46,174.6,46,170.8z M58,170.8L58,170.8c0-2.9-2.2-5.3-5-5.3c-2.9,0-4.9,2.4-4.9,5.2v0.1c0,2.9,2.1,5.2,5,5.2
		C55.9,176,58,173.7,58,170.8z"/>
	<path display="inline" fill="#2A2723" d="M63.4,172.4V164h2v7.9c0,2.5,1.4,4.1,3.7,4.1c2.3,0,4-1.7,4-4.2V164h2v13.5h-2v-2.3
		c-0.9,1.5-2.3,2.6-4.6,2.6C65.3,177.8,63.4,175.6,63.4,172.4z"/>
	<path display="inline" fill="#2A2723" d="M79.7,164h2v3.5c1-2.2,2.9-3.9,5.5-3.8v2.2h-0.2c-2.9,0-5.3,2.1-5.3,6.2v5.4h-2V164z"/>
	<path display="inline" fill="#2A2723" d="M98.4,159.3h2.1v8.1H111v-8.1h2.1v18.3H111v-8.2h-10.5v8.2h-2.1V159.3z"/>
	<path display="inline" fill="#2A2723" d="M117.1,170.8L117.1,170.8c0-3.9,2.7-7.1,6.5-7.1c4,0,6.3,3.2,6.3,7.1c0,0.3,0,0.4,0,0.7
		h-10.7c0.3,2.9,2.3,4.6,4.7,4.6c1.9,0,3.2-0.8,4.3-1.9l1.3,1.1c-1.4,1.5-3,2.5-5.6,2.5C120.1,177.8,117.1,175,117.1,170.8z
		 M127.8,170c-0.2-2.5-1.6-4.6-4.3-4.6c-2.3,0-4.1,2-4.4,4.6H127.8z"/>
	<path display="inline" fill="#2A2723" d="M132.3,173.6L132.3,173.6c0-2.9,2.3-4.4,5.8-4.4c1.7,0,2.9,0.2,4.1,0.6v-0.5
		c0-2.4-1.5-3.7-4-3.7c-1.6,0-2.8,0.4-4.1,1l-0.6-1.6c1.5-0.7,2.9-1.1,4.9-1.1c1.9,0,3.4,0.5,4.4,1.5c0.9,0.9,1.4,2.2,1.4,3.9v8.2
		h-1.9v-2c-0.9,1.2-2.5,2.3-4.9,2.3C134.9,177.8,132.3,176.4,132.3,173.6z M142.3,172.6v-1.3c-1-0.3-2.3-0.6-4-0.6
		c-2.5,0-3.9,1.1-3.9,2.8v0.1c0,1.7,1.6,2.7,3.4,2.7C140.3,176.2,142.3,174.7,142.3,172.6z"/>
	<path display="inline" fill="#2A2723" d="M148.7,158.5h2v19h-2V158.5z"/>
	<path display="inline" fill="#2A2723" d="M156,173.9v-8.1h-1.9V164h1.9V160h2v4.1h4.3v1.8H158v7.9c0,1.6,0.9,2.2,2.3,2.2
		c0.7,0,1.3-0.1,2-0.5v1.7c-0.7,0.4-1.5,0.6-2.4,0.6C157.7,177.8,156,176.7,156,173.9z"/>
	<path display="inline" fill="#2A2723" d="M165.9,158.5h2v7.9c0.9-1.5,2.3-2.6,4.6-2.6c3.3,0,5.2,2.2,5.2,5.4v8.4h-2v-7.9
		c0-2.5-1.4-4.1-3.7-4.1c-2.3,0-4,1.7-4,4.2v7.7h-2V158.5z"/>
	<path display="inline" fill="#2A2723" d="M181.7,174.8h2.4v2.7h-2.4V174.8z"/>
	<path display="inline" fill="#2A2723" d="M203.2,170.3l-7.6-11h2.5l6.2,9.1l6.2-9.1h2.4l-7.6,11v7.2h-2.1V170.3z"/>
	<path display="inline" fill="#2A2723" d="M211.6,170.8L211.6,170.8c0-3.9,3-7.1,7-7.1c4,0,7,3.2,7,7v0.1c0,3.8-3,7-7.1,7
		C214.6,177.8,211.6,174.6,211.6,170.8z M223.6,170.8L223.6,170.8c0-2.9-2.2-5.3-5-5.3c-2.9,0-4.9,2.4-4.9,5.2v0.1
		c0,2.9,2.1,5.2,5,5.2C221.6,176,223.6,173.7,223.6,170.8z"/>
	<path display="inline" fill="#2A2723" d="M229.1,172.4V164h2v7.9c0,2.5,1.4,4.1,3.7,4.1c2.3,0,4-1.7,4-4.2V164h2v13.5h-2v-2.3
		c-0.9,1.5-2.3,2.6-4.6,2.6C231,177.8,229.1,175.6,229.1,172.4z"/>
	<path display="inline" fill="#2A2723" d="M245.4,164h2v3.5c1-2.2,2.9-3.9,5.5-3.8v2.2h-0.2c-2.9,0-5.3,2.1-5.3,6.2v5.4h-2V164z"/>
	<path display="inline" fill="#2A2723" d="M262.9,174.9l1.3-1.5c1.9,1.7,3.7,2.6,6.3,2.6c2.5,0,4.1-1.3,4.1-3.1v-0.1
		c0-1.7-0.9-2.7-4.7-3.5c-4.2-0.9-6.1-2.3-6.1-5.3V164c0-2.9,2.5-5,6-5c2.7,0,4.6,0.8,6.4,2.2l-1.2,1.6c-1.7-1.4-3.4-2-5.3-2
		c-2.4,0-3.9,1.3-3.9,2.9v0.1c0,1.7,0.9,2.7,5,3.5c4.1,0.9,5.9,2.4,5.9,5.2v0.1c0,3.1-2.6,5.2-6.2,5.2
		C267.5,177.8,265.1,176.8,262.9,174.9z"/>
	<path display="inline" fill="#2A2723" d="M279.5,173.6L279.5,173.6c0-2.9,2.3-4.4,5.8-4.4c1.7,0,2.9,0.2,4.1,0.6v-0.5
		c0-2.4-1.5-3.7-4-3.7c-1.6,0-2.8,0.4-4.1,1l-0.6-1.6c1.5-0.7,2.9-1.1,4.9-1.1c1.9,0,3.4,0.5,4.4,1.5c0.9,0.9,1.4,2.2,1.4,3.9v8.2
		h-1.9v-2c-0.9,1.2-2.5,2.3-4.9,2.3C282,177.8,279.5,176.4,279.5,173.6z M289.4,172.6v-1.3c-1-0.3-2.3-0.6-4-0.6
		c-2.5,0-3.9,1.1-3.9,2.8v0.1c0,1.7,1.6,2.7,3.4,2.7C287.4,176.2,289.4,174.7,289.4,172.6z"/>
	<path display="inline" fill="#2A2723" d="M296.3,165.8h-1.9v-1.7h1.9v-1.2c0-1.5,0.4-2.7,1.2-3.5c0.7-0.7,1.7-1,2.9-1
		c0.9,0,1.6,0.1,2.2,0.3v1.7c-0.7-0.2-1.3-0.3-2-0.3c-1.6,0-2.3,0.9-2.3,2.9v1.1h4.3v1.7h-4.3v11.7h-2V165.8z"/>
	<path display="inline" fill="#2A2723" d="M304.1,170.8L304.1,170.8c0-3.9,2.7-7.1,6.5-7.1c4,0,6.3,3.2,6.3,7.1c0,0.3,0,0.4,0,0.7
		h-10.7c0.3,2.9,2.3,4.6,4.7,4.6c1.9,0,3.2-0.8,4.3-1.9l1.3,1.1c-1.4,1.5-3,2.5-5.6,2.5C307.1,177.8,304.1,175,304.1,170.8z
		 M314.8,170c-0.2-2.5-1.6-4.6-4.3-4.6c-2.3,0-4.1,2-4.4,4.6H314.8z"/>
	<path display="inline" fill="#2A2723" d="M321,173.9v-8.1h-1.9V164h1.9V160h2v4.1h4.3v1.8H323v7.9c0,1.6,0.9,2.2,2.3,2.2
		c0.7,0,1.3-0.1,2-0.5v1.7c-0.7,0.4-1.5,0.6-2.4,0.6C322.7,177.8,321,176.7,321,173.9z"/>
	<path display="inline" fill="#2A2723" d="M341,164h2.1l-5.7,13.9c-1.1,2.8-2.5,3.8-4.5,3.8c-1.1,0-2-0.2-2.9-0.7l0.7-1.6
		c0.7,0.3,1.3,0.5,2.1,0.5c1.2,0,2-0.6,2.8-2.5l-6.1-13.4h2.2l4.9,11.2L341,164z"/>
	<path display="inline" fill="#2A2723" d="M343.8,174.8h2.4v2.7h-2.4V174.8z"/>
	<path display="inline" fill="#2A2723" d="M360.9,168.4L360.9,168.4c0-5.1,3.8-9.5,9.3-9.5c5.6,0,9.3,4.4,9.3,9.4v0.1
		c0,5-3.8,9.4-9.3,9.4C364.7,177.8,360.9,173.5,360.9,168.4z M377.4,168.4L377.4,168.4c0-4.2-3-7.6-7.2-7.6c-4.2,0-7.1,3.3-7.1,7.5
		v0.1c0,4.1,3,7.5,7.2,7.5C374.5,175.9,377.4,172.6,377.4,168.4z"/>
	<path display="inline" fill="#2A2723" d="M382.3,172.4V164h2v7.9c0,2.5,1.4,4.1,3.7,4.1c2.3,0,4-1.7,4-4.2V164h2v13.5h-2v-2.3
		c-0.9,1.5-2.3,2.6-4.6,2.6C384.2,177.8,382.3,175.6,382.3,172.4z"/>
	<path display="inline" fill="#2A2723" d="M398.6,164h2v3.5c1-2.2,2.9-3.9,5.5-3.8v2.2H406c-2.9,0-5.3,2.1-5.3,6.2v5.4h-2V164z"/>
	<path display="inline" fill="#2A2723" d="M416.5,168.4L416.5,168.4c0-5.2,3.9-9.5,9.2-9.5c3.3,0,5.3,1.2,7.1,2.9l-1.4,1.5
		c-1.5-1.5-3.3-2.5-5.7-2.5c-4,0-7.1,3.3-7.1,7.5v0.1c0,4.2,3.1,7.5,7.1,7.5c2.5,0,4.1-1,5.9-2.6l1.4,1.3c-1.9,1.9-4,3.2-7.3,3.2
		C420.4,177.8,416.5,173.7,416.5,168.4z"/>
	<path display="inline" fill="#2A2723" d="M435.7,170.8L435.7,170.8c0-3.9,3-7.1,7-7.1c4,0,7,3.2,7,7v0.1c0,3.8-3,7-7.1,7
		C438.6,177.8,435.7,174.6,435.7,170.8z M447.7,170.8L447.7,170.8c0-2.9-2.2-5.3-5-5.3c-2.9,0-4.9,2.4-4.9,5.2v0.1
		c0,2.9,2.1,5.2,5,5.2C445.6,176,447.7,173.7,447.7,170.8z"/>
	<path display="inline" fill="#2A2723" d="M453.4,164h2v2.3c0.9-1.3,2.1-2.6,4.4-2.6c2.2,0,3.6,1.2,4.3,2.7c1-1.5,2.4-2.7,4.7-2.7
		c3.1,0,5,2.1,5,5.4v8.3h-2v-7.9c0-2.6-1.3-4.1-3.5-4.1c-2,0-3.7,1.5-3.7,4.2v7.8h-2v-7.9c0-2.5-1.3-4-3.5-4c-2.1,0-3.8,1.8-3.8,4.3
		v7.7h-2V164z"/>
	<path display="inline" fill="#2A2723" d="M478.2,164h2v2.3c0.9-1.3,2.1-2.6,4.4-2.6c2.2,0,3.6,1.2,4.3,2.7c1-1.5,2.4-2.7,4.7-2.7
		c3.1,0,5,2.1,5,5.4v8.3h-2v-7.9c0-2.6-1.3-4.1-3.5-4.1c-2,0-3.7,1.5-3.7,4.2v7.8h-2v-7.9c0-2.5-1.3-4-3.5-4c-2.1,0-3.8,1.8-3.8,4.3
		v7.7h-2V164z"/>
	<path display="inline" fill="#2A2723" d="M503,158.9h2.3v2.2H503V158.9z M503.1,164h2v13.5h-2V164z"/>
	<path display="inline" fill="#2A2723" d="M510.5,173.9v-8.1h-1.9V164h1.9V160h2v4.1h4.3v1.8h-4.3v7.9c0,1.6,0.9,2.2,2.3,2.2
		c0.7,0,1.3-0.1,2-0.5v1.7c-0.7,0.4-1.5,0.6-2.4,0.6C512.2,177.8,510.5,176.7,510.5,173.9z"/>
	<path display="inline" fill="#2A2723" d="M520.4,164h2v2.3c0.9-1.3,2.1-2.6,4.4-2.6c2.2,0,3.6,1.2,4.3,2.7c1-1.5,2.4-2.7,4.7-2.7
		c3.1,0,5,2.1,5,5.4v8.3h-2v-7.9c0-2.6-1.3-4.1-3.5-4.1c-2,0-3.7,1.5-3.7,4.2v7.8h-2v-7.9c0-2.5-1.3-4-3.5-4c-2.1,0-3.8,1.8-3.8,4.3
		v7.7h-2V164z"/>
	<path display="inline" fill="#2A2723" d="M544.3,170.8L544.3,170.8c0-3.9,2.7-7.1,6.5-7.1c4,0,6.3,3.2,6.3,7.1c0,0.3,0,0.4,0,0.7
		h-10.7c0.3,2.9,2.3,4.6,4.7,4.6c1.9,0,3.2-0.8,4.2-1.9l1.3,1.1c-1.4,1.5-3,2.5-5.6,2.5C547.4,177.8,544.3,175,544.3,170.8z
		 M555,170c-0.2-2.5-1.6-4.6-4.3-4.6c-2.3,0-4.1,2-4.4,4.6H555z"/>
	<path display="inline" fill="#2A2723" d="M560.6,164h2v2.3c0.9-1.5,2.3-2.6,4.6-2.6c3.3,0,5.2,2.2,5.2,5.4v8.4h-2v-7.9
		c0-2.5-1.4-4.1-3.7-4.1c-2.3,0-4,1.7-4,4.2v7.7h-2V164z"/>
	<path display="inline" fill="#2A2723" d="M577.4,173.9v-8.1h-1.9V164h1.9V160h2v4.1h4.3v1.8h-4.3v7.9c0,1.6,0.9,2.2,2.3,2.2
		c0.7,0,1.3-0.1,2-0.5v1.7c-0.7,0.4-1.5,0.6-2.4,0.6C579,177.8,577.4,176.7,577.4,173.9z"/>
	<path display="inline" fill="#2A2723" d="M587,174.8h2.4v2.7H587V174.8z"/>
</g>
<g>
	<path fill="#2A2723" d="M38.3,170.8l-7.6-11h2.5l6.1,9.1l6.2-9.1h2.4l-7.6,11v7.2h-2.1V170.8z"/>
	<path fill="#2A2723" d="M47.2,171.3L47.2,171.3c0-3.8,3-7.1,7-7.1c4,0,7,3.2,7,7v0.1c0,3.8-3,7-7,7
		C50.1,178.3,47.2,175.1,47.2,171.3z M59.1,171.3L59.1,171.3c0-2.9-2.2-5.3-5-5.3c-2.9,0-4.9,2.4-4.9,5.2v0.1c0,2.9,2.1,5.2,5,5.2
		C57.1,176.5,59.1,174.2,59.1,171.3z"/>
	<path fill="#2A2723" d="M64.1,172.9v-8.3h2v7.9c0,2.5,1.4,4.1,3.7,4.1c2.3,0,4-1.7,4-4.2v-7.7h2V178h-2v-2.3
		c-0.9,1.5-2.3,2.6-4.6,2.6C66,178.3,64.1,176.1,64.1,172.9z"/>
	<path fill="#2A2723" d="M80.3,164.5h2v3.5c1-2.2,2.9-3.8,5.5-3.7v2.2h-0.2c-2.9,0-5.3,2.1-5.3,6.2v5.4h-2V164.5z"/>
	<path fill="#2A2723" d="M98.4,159.8h2.1v8.1H111v-8.1h2.1V178H111v-8.2h-10.5v8.2h-2.1V159.8z"/>
	<path fill="#2A2723" d="M117,171.3L117,171.3c0-3.9,2.7-7,6.4-7c4,0,6.3,3.2,6.3,7.1c0,0.3,0,0.4,0,0.6H119
		c0.3,2.9,2.3,4.6,4.7,4.6c1.8,0,3.1-0.8,4.2-1.9l1.2,1.1c-1.4,1.5-3,2.5-5.5,2.5C120,178.3,117,175.5,117,171.3z M127.7,170.5
		c-0.2-2.4-1.6-4.6-4.3-4.6c-2.3,0-4.1,1.9-4.4,4.6H127.7z"/>
	<path fill="#2A2723" d="M132.2,174.1L132.2,174.1c0-2.9,2.3-4.4,5.7-4.4c1.7,0,2.9,0.2,4.1,0.6v-0.5c0-2.4-1.5-3.7-4-3.7
		c-1.6,0-2.8,0.4-4.1,1l-0.6-1.6c1.5-0.7,2.9-1.1,4.9-1.1c1.9,0,3.4,0.5,4.3,1.5c0.9,0.9,1.4,2.2,1.4,3.9v8.2h-1.9v-2
		c-0.9,1.2-2.5,2.3-4.9,2.3C134.8,178.3,132.2,176.8,132.2,174.1z M142.1,173v-1.3c-1-0.3-2.3-0.6-4-0.6c-2.5,0-3.9,1.1-3.9,2.8v0.1
		c0,1.7,1.6,2.7,3.4,2.7C140.1,176.7,142.1,175.2,142.1,173z"/>
	<path fill="#2A2723" d="M148.5,159h2v19h-2V159z"/>
	<path fill="#2A2723" d="M155.8,174.4v-8.1H154v-1.8h1.9v-4.1h2v4.1h4.3v1.8h-4.3v7.9c0,1.6,0.9,2.2,2.3,2.2c0.7,0,1.2-0.1,2-0.5
		v1.7c-0.7,0.4-1.5,0.6-2.4,0.6C157.5,178.2,155.8,177.1,155.8,174.4z"/>
	<path fill="#2A2723" d="M165.6,159h2v7.9c0.9-1.5,2.3-2.6,4.6-2.6c3.2,0,5.1,2.2,5.1,5.4v8.3h-2v-7.9c0-2.5-1.4-4.1-3.7-4.1
		c-2.3,0-4,1.7-4,4.2v7.7h-2V159z"/>
	<path fill="#2A2723" d="M181.4,175.2h2.4v2.7h-2.4V175.2z"/>
	<path fill="#2A2723" d="M202.9,170.8l-7.6-11h2.5l6.1,9.1l6.2-9.1h2.4l-7.6,11v7.2h-2.1V170.8z"/>
	<path fill="#2A2723" d="M211.8,171.3L211.8,171.3c0-3.8,3-7.1,7-7.1c4,0,7,3.2,7,7v0.1c0,3.8-3,7-7,7
		C214.7,178.3,211.8,175.1,211.8,171.3z M223.8,171.3L223.8,171.3c0-2.9-2.2-5.3-5-5.3c-2.9,0-4.9,2.4-4.9,5.2v0.1
		c0,2.9,2.1,5.2,5,5.2C221.7,176.5,223.8,174.2,223.8,171.3z"/>
	<path fill="#2A2723" d="M229.2,172.9v-8.3h2v7.9c0,2.5,1.4,4.1,3.7,4.1c2.3,0,4-1.7,4-4.2v-7.7h2V178h-2v-2.3
		c-0.9,1.5-2.3,2.6-4.6,2.6C231.1,178.3,229.2,176.1,229.2,172.9z"/>
	<path fill="#2A2723" d="M245.4,164.5h2v3.5c1-2.2,2.9-3.8,5.5-3.7v2.2h-0.2c-2.9,0-5.3,2.1-5.3,6.2v5.4h-2V164.5z"/>
	<path fill="#2A2723" d="M262.9,175.3l1.3-1.5c1.9,1.7,3.7,2.6,6.2,2.6c2.4,0,4.1-1.3,4.1-3.1v-0.1c0-1.7-0.9-2.7-4.7-3.5
		c-4.2-0.9-6.1-2.3-6.1-5.3v-0.1c0-2.9,2.5-5,6-5c2.7,0,4.6,0.8,6.4,2.2l-1.2,1.6c-1.7-1.4-3.4-2-5.3-2c-2.4,0-3.9,1.3-3.9,2.9v0.1
		c0,1.7,0.9,2.7,4.9,3.5c4.1,0.9,5.9,2.4,5.9,5.1v0.1c0,3.1-2.6,5.1-6.2,5.1C267.5,178.2,265.1,177.3,262.9,175.3z"/>
	<path fill="#2A2723" d="M279.4,174.1L279.4,174.1c0-2.9,2.3-4.4,5.7-4.4c1.7,0,2.9,0.2,4.1,0.6v-0.5c0-2.4-1.5-3.7-4-3.7
		c-1.6,0-2.8,0.4-4.1,1l-0.6-1.6c1.5-0.7,2.9-1.1,4.9-1.1c1.9,0,3.4,0.5,4.3,1.5c0.9,0.9,1.4,2.2,1.4,3.9v8.2h-1.9v-2
		c-0.9,1.2-2.5,2.3-4.9,2.3C281.9,178.3,279.4,176.8,279.4,174.1z M289.3,173v-1.3c-1-0.3-2.3-0.6-4-0.6c-2.5,0-3.9,1.1-3.9,2.8v0.1
		c0,1.7,1.6,2.7,3.4,2.7C287.3,176.7,289.3,175.2,289.3,173z"/>
	<path fill="#2A2723" d="M296.2,166.3h-1.8v-1.7h1.8v-1.2c0-1.5,0.4-2.7,1.2-3.5c0.7-0.7,1.7-1,2.9-1c0.9,0,1.6,0.1,2.2,0.3v1.7
		c-0.7-0.2-1.3-0.3-2-0.3c-1.6,0-2.3,0.9-2.3,2.9v1.1h4.3v1.7h-4.2V178h-2V166.3z"/>
	<path fill="#2A2723" d="M303.9,171.3L303.9,171.3c0-3.9,2.7-7,6.4-7c4,0,6.3,3.2,6.3,7.1c0,0.3,0,0.4,0,0.6h-10.7
		c0.3,2.9,2.3,4.6,4.7,4.6c1.8,0,3.1-0.8,4.2-1.9l1.2,1.1c-1.4,1.5-3,2.5-5.5,2.5C306.9,178.3,303.9,175.5,303.9,171.3z
		 M314.6,170.5c-0.2-2.4-1.6-4.6-4.3-4.6c-2.3,0-4.1,1.9-4.4,4.6H314.6z"/>
	<path fill="#2A2723" d="M320.8,174.4v-8.1H319v-1.8h1.9v-4.1h2v4.1h4.3v1.8h-4.3v7.9c0,1.6,0.9,2.2,2.3,2.2c0.7,0,1.2-0.1,2-0.5
		v1.7c-0.7,0.4-1.5,0.6-2.4,0.6C322.5,178.2,320.8,177.1,320.8,174.4z"/>
	<path fill="#2A2723" d="M340.7,164.5h2.1l-5.6,13.9c-1.1,2.8-2.4,3.8-4.5,3.8c-1.1,0-2-0.2-2.9-0.7l0.7-1.6
		c0.7,0.3,1.2,0.5,2.1,0.5c1.2,0,2-0.6,2.8-2.5l-6.1-13.4h2.2l4.9,11.2L340.7,164.5z"/>
	<path fill="#2A2723" d="M343.6,175.2h2.4v2.7h-2.4V175.2z"/>
	<path fill="#2A2723" d="M360.6,168.9L360.6,168.9c0-5.1,3.8-9.5,9.3-9.5s9.3,4.3,9.3,9.4v0.1c0,5-3.8,9.4-9.3,9.4
		S360.6,173.9,360.6,168.9z M377,168.9L377,168.9c0-4.2-3-7.6-7.2-7.6s-7.1,3.3-7.1,7.5v0.1c0,4.1,3,7.5,7.2,7.5
		S377,173.1,377,168.9z"/>
	<path fill="#2A2723" d="M383,172.9v-8.3h2v7.9c0,2.5,1.4,4.1,3.7,4.1c2.3,0,4-1.7,4-4.2v-7.7h2V178h-2v-2.3
		c-0.9,1.5-2.3,2.6-4.6,2.6C384.9,178.3,383,176.1,383,172.9z"/>
	<path fill="#2A2723" d="M399.2,164.5h2v3.5c1-2.2,2.9-3.8,5.5-3.7v2.2h-0.2c-2.9,0-5.3,2.1-5.3,6.2v5.4h-2V164.5z"/>
	<path fill="#2A2723" d="M417.1,168.9L417.1,168.9c0-5.2,3.8-9.5,9.2-9.5c3.3,0,5.3,1.2,7.1,2.9l-1.4,1.5c-1.5-1.5-3.3-2.5-5.7-2.5
		c-4,0-7,3.3-7,7.5v0.1c0,4.2,3,7.5,7,7.5c2.5,0,4.1-1,5.9-2.6l1.4,1.3c-1.9,1.9-4,3.2-7.3,3.2C420.9,178.3,417.1,174.2,417.1,168.9
		z"/>
	<path fill="#2A2723" d="M435.6,171.3L435.6,171.3c0-3.8,3-7.1,7-7.1c4,0,7,3.2,7,7v0.1c0,3.8-3,7-7,7
		C438.6,178.3,435.6,175.1,435.6,171.3z M447.6,171.3L447.6,171.3c0-2.9-2.2-5.3-5-5.3c-2.9,0-4.9,2.4-4.9,5.2v0.1
		c0,2.9,2.1,5.2,5,5.2C445.6,176.5,447.6,174.2,447.6,171.3z"/>
	<path fill="#2A2723" d="M453.3,164.5h2v2.3c0.9-1.3,2.1-2.5,4.3-2.5c2.2,0,3.6,1.2,4.3,2.7c1-1.5,2.4-2.7,4.7-2.7
		c3.1,0,5,2.1,5,5.4v8.3h-2v-7.9c0-2.6-1.3-4.1-3.5-4.1c-2,0-3.7,1.5-3.7,4.2v7.7h-2v-7.9c0-2.5-1.3-4-3.5-4s-3.7,1.8-3.7,4.2v7.7
		h-2V164.5z"/>
	<path fill="#2A2723" d="M478,164.5h2v2.3c0.9-1.3,2.1-2.5,4.3-2.5c2.2,0,3.6,1.2,4.3,2.7c1-1.5,2.4-2.7,4.7-2.7c3.1,0,5,2.1,5,5.4
		v8.3h-2v-7.9c0-2.6-1.3-4.1-3.5-4.1c-2,0-3.7,1.5-3.7,4.2v7.7h-2v-7.9c0-2.5-1.3-4-3.5-4s-3.7,1.8-3.7,4.2v7.7h-2V164.5z"/>
	<path fill="#2A2723" d="M502.8,159.4h2.3v2.2h-2.3V159.4z M502.9,164.5h2V178h-2V164.5z"/>
	<path fill="#2A2723" d="M510.2,174.4v-8.1h-1.9v-1.8h1.9v-4.1h2v4.1h4.3v1.8h-4.3v7.9c0,1.6,0.9,2.2,2.3,2.2c0.7,0,1.2-0.1,2-0.5
		v1.7c-0.7,0.4-1.5,0.6-2.4,0.6C511.9,178.2,510.2,177.1,510.2,174.4z"/>
	<path fill="#2A2723" d="M520,164.5h2v2.3c0.9-1.3,2.1-2.5,4.3-2.5c2.2,0,3.6,1.2,4.3,2.7c1-1.5,2.4-2.7,4.7-2.7c3.1,0,5,2.1,5,5.4
		v8.3h-2v-7.9c0-2.6-1.3-4.1-3.5-4.1c-2,0-3.7,1.5-3.7,4.2v7.7h-2v-7.9c0-2.5-1.3-4-3.5-4s-3.7,1.8-3.7,4.2v7.7h-2V164.5z"/>
	<path fill="#2A2723" d="M543.9,171.3L543.9,171.3c0-3.9,2.7-7,6.4-7c4,0,6.3,3.2,6.3,7.1c0,0.3,0,0.4,0,0.6H546
		c0.3,2.9,2.3,4.6,4.7,4.6c1.8,0,3.1-0.8,4.2-1.9l1.2,1.1c-1.4,1.5-3,2.5-5.5,2.5C547,178.3,543.9,175.5,543.9,171.3z M554.6,170.5
		c-0.2-2.4-1.6-4.6-4.3-4.6c-2.3,0-4.1,1.9-4.4,4.6H554.6z"/>
	<path fill="#2A2723" d="M560.2,164.5h2v2.3c0.9-1.5,2.3-2.6,4.6-2.6c3.2,0,5.1,2.2,5.1,5.4v8.3h-2v-7.9c0-2.5-1.4-4.1-3.7-4.1
		c-2.3,0-4,1.7-4,4.2v7.7h-2V164.5z"/>
	<path fill="#2A2723" d="M576.9,174.4v-8.1H575v-1.8h1.9v-4.1h2v4.1h4.3v1.8h-4.3v7.9c0,1.6,0.9,2.2,2.3,2.2c0.7,0,1.2-0.1,2-0.5
		v1.7c-0.7,0.4-1.5,0.6-2.4,0.6C578.5,178.2,576.9,177.1,576.9,174.4z"/>
	<path fill="#2A2723" d="M586.4,175.2h2.4v2.7h-2.4V175.2z"/>
</g>
</svg>